<svg width="103" height="17" viewBox="0 0 103 17" fill="none" xmlns="http://www.w3.org/2000/svg">
<path d="M94.6314 0L96.5103 5.87336L102.591 5.87336L97.6716 9.50329L99.5505 15.3766L94.6314 11.7467L89.7124 15.3766L91.5913 9.50329L86.6723 5.87336L92.7525 5.87336L94.6314 0Z" fill="#BDBEC2" fill-opacity="0.7"/>
<path d="M72.7438 0L74.6227 5.87336L80.7029 5.87336L75.7839 9.50329L77.6628 15.3766L72.7438 11.7467L67.8247 15.3766L69.7036 9.50329L64.7846 5.87336L70.8648 5.87336L72.7438 0Z" fill="#BDBEC2" fill-opacity="0.7"/>
<path d="M50.8561 0L52.735 5.87336L58.8152 5.87336L53.8962 9.50329L55.7751 15.3766L50.8561 11.7467L45.937 15.3766L47.8159 9.50329L42.8969 5.87336L48.9772 5.87336L50.8561 0Z" fill="#BDBEC2" fill-opacity="0.7"/>
<path d="M30.2564 0L32.1353 5.87336L38.2156 5.87336L33.2966 9.50329L35.1755 15.3766L30.2564 11.7467L25.3374 15.3766L27.2163 9.50329L22.2973 5.87336L28.3775 5.87336L30.2564 0Z" fill="#BDBEC2" fill-opacity="0.7"/>
<path d="M8.36875 0L10.2477 5.87336L16.3279 5.87336L11.4089 9.50329L13.2878 15.3766L8.36875 11.7467L3.44972 15.3766L5.32862 9.50329L0.409596 5.87336L6.48985 5.87336L8.36875 0Z" fill="#BDBEC2" fill-opacity="0.7"/>
</svg>
